# xmcd CD database file
#
# Track frame offsets:
#	150
#	13878
#	25204
#	35679
#	45657
#	57997
#	70205
#	83632
#	94740
#	104179
#	112562
#	125198
#	134356
#	143711
#	156153
#	166773
#	176932
#	188198
#	197194
#	207242
#	217988
#	230493
#	240083
#	249565
#	258134
#	268533
#	277934
#	288675
#
# Disc length: 4033 seconds
#
# Revision: 2
# Processed by: cddbd v1.5.2PL0 Copyright (c) Steve Scherf et al.
# Submitted via: CDex 1.70beta2
#
DISCID=990fbf1c
DTITLE=Various Artist - Zell's Girls
DYEAR=2007
DGENRE=R&B
TTITLE0=Cry Behind The Daisies
TTITLE1=Extra, Extra, Read All About It
TTITLE2=Give Our Love A Chance
TTITLE3=No Turning Back For Me
TTITLE4=Vangie, Don't You Cry
TTITLE5=Your Little Boy
TTITLE6=Peepin' In And Out The Windows
TTITLE7=Stay Away From My Baby
TTITLE8=Don't Want No Teasing
TTITLE9=I Don't Understand You No More
TTITLE10=All My Love Belongs To You
TTITLE11=What Makes Me Love You Like I Do
TTITLE12=To Be A Part Of You
TTITLE13=Where Are You Tonite
TTITLE14=Suffering With My Heart
TTITLE15=Going Home To Stay
TTITLE16=Look Up To The Sky
TTITLE17=Need You To Help Me
TTITLE18=I Got The Feeling
TTITLE19=Disappointed Bride
TTITLE20=I Wanted To Be Free
TTITLE21=Pass It On
TTITLE22=Talk About Him, Girlie
TTITLE23=Oh, Come Back, Baby
TTITLE24=Last Night
TTITLE25=Every Night The Same Time
TTITLE26=It Doesn't Matter
TTITLE27=Over The Mountain, Accross The Sea
EXTD=YEAR: 2007
EXTT0=
EXTT1=
EXTT2=
EXTT3=
EXTT4=
EXTT5=
EXTT6=
EXTT7=
EXTT8=
EXTT9=
EXTT10=
EXTT11=
EXTT12=
EXTT13=
EXTT14=
EXTT15=
EXTT16=
EXTT17=
EXTT18=
EXTT19=
EXTT20=
EXTT21=
EXTT22=
EXTT23=
EXTT24=
EXTT25=
EXTT26=
EXTT27=
PLAYORDER=
